# xmcd
# 
# Track frame offsets:
#     150
#     10133
#     23230
#     34768
#     44415
#     54415
#     98515
#     109408
#     119993
#     130873
#     142950
#     152600
#     163483
#     189763
# 
# Disc length: 2680
# 
# Revision: 1
# Processed by: cddbd v1.5.2PL0 Copyright (c) Steve Scherf et al.
# Submitted via: fre:ac v1.0.31
# 
DISCID=ba0a760e
DTITLE=Jimmy Page - Playin' Up A Storm
DYEAR=2011
DGENRE=Rock/Pop
TTITLE0=Lovin' Up A Storm
TTITLE1=Everything I Do Is Wrong
TTITLE2=Think It Over
TTITLE3=Boll Weevil Song
TTITLE4=Livin' Lovin' Wreck
TTITLE5=One Long Kiss
TTITLE6=Dixie Fried
TTITLE7=Down The Line
TTITLE8=Fabulous
TTITLE9=Breathless
TTITLE10=Rave On
TTITLE11=Lonely Weekend
TTITLE12=Burn Up
TTITLE13=Everyday
EXTD=
EXTT0=
EXTT1=
EXTT2=
EXTT3=
EXTT4=
EXTT5=
EXTT6=
EXTT7=
EXTT8=
EXTT9=
EXTT10=
EXTT11=
EXTT12=
EXTT13=
PLAYORDER=
